<svg width="32" height="32" viewBox="0 0 32 32" fill="none" xmlns="http://www.w3.org/2000/svg">
<path fill-rule="evenodd" clip-rule="evenodd" d="M15.924 1.66667H16.076C19.1547 1.66667 21.5667 1.66667 23.4493 1.92C25.3747 2.17867 26.8947 2.72 28.088 3.912C29.2813 5.10533 29.8213 6.62533 30.08 8.552C30.3333 10.4333 30.3333 12.8453 30.3333 15.924V16.0413C30.3333 18.5867 30.3333 20.6693 30.1947 22.3653C30.056 24.072 29.772 25.4947 29.1347 26.6787C28.8556 27.1996 28.5067 27.6693 28.088 28.088C26.8947 29.2813 25.3747 29.8213 23.448 30.08C21.5667 30.3333 19.1547 30.3333 16.076 30.3333H15.924C12.8453 30.3333 10.4333 30.3333 8.55067 30.08C6.62533 29.8213 5.10533 29.28 3.912 28.088C2.85467 27.0307 2.308 25.7147 2.01867 24.08C1.732 22.476 1.68 20.48 1.66933 18.0027C1.66756 17.3716 1.66667 16.704 1.66667 16V15.9227C1.66667 12.844 1.66667 10.432 1.92 8.54933C2.17867 6.624 2.72 5.104 3.912 3.91067C5.10533 2.71733 6.62533 2.17733 8.552 1.91867C10.4333 1.66533 12.8453 1.66533 15.924 1.66533M8.81733 3.9C7.11333 4.12933 6.08533 4.56667 5.32667 5.32533C4.56667 6.08533 4.13067 7.112 3.90133 8.81733C3.66933 10.5507 3.66667 12.828 3.66667 15.9987C3.66667 16.7036 3.66756 17.368 3.66933 17.992C3.68 20.4907 3.736 22.32 3.98667 23.7293C4.232 25.1093 4.65067 25.996 5.32667 26.672C6.08667 27.432 7.11333 27.868 8.81867 28.0973C10.552 28.3293 12.8293 28.332 16 28.332C19.1707 28.332 21.448 28.3293 23.1813 28.0973C24.8867 27.868 25.9147 27.4307 26.6747 26.672C26.9547 26.392 27.1827 26.0827 27.3733 25.7293C27.816 24.908 28.0707 23.8093 28.2013 22.2027C28.332 20.596 28.3333 18.5933 28.3333 15.9987C28.3333 12.828 28.3307 10.5507 28.0987 8.81733C27.8693 7.112 27.432 6.084 26.6733 5.324C25.9133 4.56533 24.8867 4.12933 23.1813 3.9C21.448 3.668 19.1707 3.66533 16 3.66533C12.8293 3.66533 10.5507 3.668 8.81733 3.9Z" fill="#4E80EE"/>
<path opacity="0.5" d="M28.332 17.7067L28.036 17.6667C24.244 17.1413 20.7747 19.112 19.0067 22.084C16.7267 16.3173 10.704 12.384 3.97467 13.3507L3.67333 13.3933C3.668 14.1871 3.66578 15.056 3.66667 16C3.66667 16.7049 3.66756 17.3693 3.66933 17.9933C3.68 20.492 3.736 22.3213 3.98667 23.7307C4.232 25.1107 4.65067 25.9973 5.32667 26.6733C6.08667 27.4333 7.11333 27.8693 8.81867 28.0987C10.552 28.3307 12.8293 28.3333 16 28.3333C19.1707 28.3333 21.448 28.3307 23.1813 28.0987C24.8867 27.8693 25.9147 27.432 26.6747 26.6733C26.9547 26.3933 27.1827 26.084 27.3733 25.7307C27.816 24.9093 28.0707 23.8107 28.2013 22.204C28.3027 20.9693 28.3253 19.5 28.332 17.7067Z" fill="url(#paint0_linear_1_3)"/>
<path d="M24 10.6667C24 11.3739 23.719 12.0522 23.219 12.5523C22.7189 13.0524 22.0406 13.3333 21.3333 13.3333C20.6261 13.3333 19.9478 13.0524 19.4477 12.5523C18.9476 12.0522 18.6667 11.3739 18.6667 10.6667C18.6667 9.95942 18.9476 9.28115 19.4477 8.78105C19.9478 8.28095 20.6261 8 21.3333 8C22.0406 8 22.7189 8.28095 23.219 8.78105C23.719 9.28115 24 9.95942 24 10.6667Z" fill="#4E80EE"/>
<defs>
<linearGradient id="paint0_linear_1_3" x1="15.9992" y1="13.2046" x2="15.9992" y2="28.3333" gradientUnits="userSpaceOnUse">
<stop stop-color="#652CD1"/>
<stop offset="1" stop-color="#4E80EE"/>
</linearGradient>
</defs>
</svg>
